<?xml version="1.0" encoding="utf-8"?>
<!-- Generator: Adobe Illustrator 27.9.0, SVG Export Plug-In . SVG Version: 6.00 Build 0)  -->
<svg version="1.1" id="Layer_1" xmlns="http://www.w3.org/2000/svg" xmlns:xlink="http://www.w3.org/1999/xlink" x="0px" y="0px"
	 viewBox="0 0 212.6 185.6" style="enable-background:new 0 0 212.6 185.6;" xml:space="preserve">
<g>
	<path d="M106.2,8.5c-43.1,0-78,35-78,78s35,78,78,78s78-35,78-78S149.3,8.5,106.2,8.5L106.2,8.5z M106.2,155.8
		c-38.2,0-69.3-31-69.3-69.3s31-69.3,69.3-69.3s69.3,31,69.3,69.3l0,0C175.5,124.8,144.5,155.8,106.2,155.8z M88.9,91.8
		c0,5.3-4.3,9.6-9.6,9.6c-5.3,0-9.6-4.3-9.6-9.6c0-5.3,4.3-9.6,9.6-9.6C84.6,82.3,88.9,86.4,88.9,91.8
		C88.9,91.7,88.9,91.7,88.9,91.8L88.9,91.8z M142.7,91.8c0,5.3-4.3,9.6-9.6,9.6c-5.3,0-9.6-4.3-9.6-9.6c0-5.3,4.3-9.6,9.6-9.6l0,0
		C138.4,82.3,142.7,86.5,142.7,91.8C142.7,91.7,142.7,91.7,142.7,91.8L142.7,91.8z M151.4,71.9l8.8-9.6h-19.5
		c-20.8-14.1-47.9-14.1-68.6,0H52.4l8.8,9.6c-10.9,10-11.6,27.1-1.6,38s27.1,11.6,38,1.6l0,0l8.6,9.4l8.6-9.4c10.9,10,28,9.4,38-1.6
		C163,99.1,162.3,82,151.4,71.9z M79.4,110c-10,0-18.2-8.1-18.2-18.2s8.1-18.2,18.2-18.2s18.2,8.1,18.2,18.2
		C97.7,101.9,89.4,110,79.4,110L79.4,110L79.4,110z M106.2,91.3c0-12-8.7-22.2-20.2-26.6c13-5.4,27.5-5.4,40.4,0
		C114.9,69.1,106.2,79.3,106.2,91.3z M133.2,110c-10,0-18.2-8.1-18.2-18.2c0-10,8.1-18.2,18.2-18.2s18.2,8.1,18.2,18.2
		S143.2,110,133.2,110L133.2,110z"/>
	<path d="M44.5,148.9c0,0-3.9-9.9-14.7-20c-6.8-6.1-15.1-10.3-24-12c4.1,8,9.5,15.3,16.1,21.4C33.2,149.2,44.5,148.9,44.5,148.9z"/>
	<path d="M71.5,163.7c-4.5-3.9-9.8-7.1-15.5-9.3c-6.2-2.4-13-3-19.5-2c5.1,4.2,10.8,7.4,16.9,9.8C64,166.4,71.5,163.7,71.5,163.7z"
		/>
	<path d="M97.6,169c-4.5-1.6-9.4-2.3-14.2-2c-5.3,0.2-10.4,1.9-14.8,5c5,1.6,10.3,2.3,15.5,2C93,173.6,97.6,169,97.6,169z"/>
	<path d="M32.8,125c0,0-1.8-10.6-10.3-22.6C17.2,95,9.9,89.4,1.4,85.9c2.3,8.7,6.2,16.9,11.4,24.3C21.7,123,32.8,125,32.8,125z"/>
	<path d="M22.3,92.7c0,0,2-10.7-1.4-25c-2.3-8.8-6.9-16.9-13.5-23.1c-0.9,9.1-0.3,18.3,1.9,27.2C12.8,87,22.3,92.7,22.3,92.7z"/>
	<path d="M168,148.9c0,0,3.9-9.9,14.7-20c6.8-6.1,15.1-10.3,24.1-12c-4.1,8-9.5,15.3-16.1,21.4C179.2,149.2,168,148.9,168,148.9z"/>
	<path d="M141.1,163.7c4.5-3.9,9.8-7.1,15.6-9.3c6.2-2.4,13-3,19.5-2c-5.1,4.2-10.8,7.4-16.9,9.8
		C148.4,166.4,141.1,163.7,141.1,163.7z"/>
	<path d="M114.9,169c4.5-1.6,9.4-2.3,14.2-2c5.3,0.2,10.4,1.9,14.8,5c-5,1.6-10.2,2.3-15.5,2C119.4,173.6,114.9,169,114.9,169z"/>
	<path d="M179.8,125c0,0,1.8-10.6,10.3-22.6c5.3-7.4,12.6-13.1,21.1-16.6c-2.3,8.7-6.2,16.9-11.4,24.3
		C190.7,123,179.8,125,179.8,125z"/>
	<path d="M190.3,92.7c0,0-2-10.7,1.4-25c2.3-8.8,6.9-16.9,13.5-23.1c1,9.1,0.3,18.3-1.9,27.2C199.7,87,190.3,92.7,190.3,92.7z"/>
	<circle cx="106.2" cy="172.9" r="4.3"/>
</g>
<g>
	<path d="M19.7,286.9l20.6-16.1c2.6-2.1,4-4.2,4-7c0-3.4-2.3-5.9-6.4-5.9c-4,0-6.8,2.8-7,6.2H18.4c0-8.7,6.4-17.2,19.7-17.2
		c12.1,0,19.5,6.4,19.5,15.9c0,7.6-3.4,11.9-11.5,17.6l-6.2,4.4h18.5v11.2H19.5v-9.1H19.7z"/>
	<path d="M61.9,272.1c0-13.8,10.2-25,25.5-25s25.5,11.2,25.5,25c0,13.8-10.2,25-25.5,25C72,297.1,61.9,285.9,61.9,272.1z
		 M100.1,272.1c0-7.9-5.5-13.1-12.7-13.1c-7.2,0-12.7,5.1-12.7,13.1c0,7.9,5.5,13.1,12.7,13.1C94.7,285.2,100.1,279.9,100.1,272.1z"
		/>
	<path d="M117.5,286.9l20.6-16.1c2.6-2.1,4-4.2,4-7c0-3.4-2.3-5.9-6.4-5.9c-4,0-6.8,2.8-7,6.2h-12.5c0-8.7,6.4-17.2,19.7-17.2
		c12.1,0,19.5,6.4,19.5,15.9c0,7.6-3.4,11.9-11.5,17.6l-6.2,4.4h18.5v11.2h-38.8v-9.1H117.5z"/>
	<path d="M117.5,286.9l20.6-16.1c2.6-2.1,4-4.2,4-7c0-3.4-2.3-5.9-6.4-5.9c-4,0-6.8,2.8-7,6.2h-12.5c0-8.7,6.4-17.2,19.7-17.2
		c12.1,0,19.5,6.4,19.5,15.9c0,7.6-3.4,11.9-11.5,17.6l-6.2,4.4h18.5v11.2h-38.8v-9.1H117.5z"/>
	<path d="M161.1,281.4h10.9c0.2,4,3,6.4,7,6.4c3.8,0,6.7-2.2,6.7-5.9c0-4-2.9-5.9-7.2-5.9h-2.6v-8.6h2.7c3.7,0,6.2-2.2,6.2-5.3
		c0-3.2-2.4-5.1-6.1-5.1c-3.4,0-5.9,2.2-6.2,5.1h-10.2c0-8.1,6.4-15.2,16.4-15.2c10.2,0,16.8,5.6,16.8,13.9c0,5-2.7,8.5-6.1,10.4
		c4.3,1.6,7.3,5.6,7.3,11.3c0,9.3-7.3,15.7-17.9,15.7C167.1,298.1,161.1,290.4,161.1,281.4z"/>
</g>
</svg>
