<?xml version="1.0" encoding="utf-8"?>
<!-- Generator: Adobe Illustrator 27.9.0, SVG Export Plug-In . SVG Version: 6.00 Build 0)  -->
<svg version="1.1" id="Layer_1" xmlns="http://www.w3.org/2000/svg" xmlns:xlink="http://www.w3.org/1999/xlink" x="0px" y="0px"
	 viewBox="0 0 212.6 70.4" style="enable-background:new 0 0 212.6 70.4;" xml:space="preserve">
<g>
	<path d="M106.2-326.1c-43.1,0-78,35-78,78s35,78,78,78s78-35,78-78S149.3-326.1,106.2-326.1L106.2-326.1z M106.2-178.8
		C68-178.8,37-209.8,37-248s31-69.3,69.3-69.3s69.3,31,69.3,69.3l0,0C175.5-209.8,144.5-178.8,106.2-178.8z M88.9-242.7
		c0,5.3-4.3,9.6-9.6,9.6c-5.3,0-9.6-4.3-9.6-9.6c0-5.3,4.3-9.6,9.6-9.6C84.6-252.3,88.9-248.2,88.9-242.7
		C88.9-242.9,88.9-242.9,88.9-242.7L88.9-242.7z M142.7-242.7c0,5.3-4.3,9.6-9.6,9.6c-5.3,0-9.6-4.3-9.6-9.6c0-5.3,4.3-9.6,9.6-9.6
		l0,0C138.4-252.3,142.7-248,142.7-242.7C142.7-242.9,142.7-242.9,142.7-242.7L142.7-242.7z M151.4-262.7l8.8-9.6h-19.5
		c-20.8-14.1-47.9-14.1-68.6,0H52.4l8.8,9.6c-10.9,10-11.6,27.1-1.6,38c10,10.9,27.1,11.6,38,1.6l0,0l8.6,9.4l8.6-9.4
		c10.9,10,28,9.4,38-1.6C163-235.5,162.3-252.6,151.4-262.7z M79.4-224.6c-10,0-18.2-8.1-18.2-18.2s8.1-18.2,18.2-18.2
		s18.2,8.1,18.2,18.2C97.7-232.7,89.4-224.6,79.4-224.6L79.4-224.6L79.4-224.6z M106.2-243.3c0-12-8.7-22.2-20.2-26.6
		c13-5.4,27.5-5.4,40.4,0C114.9-265.5,106.2-255.3,106.2-243.3z M133.2-224.6c-10,0-18.2-8.1-18.2-18.2c0-10,8.1-18.2,18.2-18.2
		s18.2,8.1,18.2,18.2S143.2-224.6,133.2-224.6L133.2-224.6z"/>
	<path d="M44.5-185.7c0,0-3.9-9.9-14.7-20c-6.8-6.1-15.1-10.3-24-12c4.1,8,9.5,15.3,16.1,21.4C33.2-185.4,44.5-185.7,44.5-185.7z"/>
	<path d="M71.5-170.9c-4.5-3.9-9.8-7.1-15.5-9.3c-6.2-2.4-13-3-19.5-2c5.1,4.2,10.8,7.4,16.9,9.8C64-168.2,71.5-170.9,71.5-170.9z"
		/>
	<path d="M97.6-165.6c-4.5-1.6-9.4-2.3-14.2-2c-5.3,0.2-10.4,1.9-14.8,5c5,1.6,10.3,2.3,15.5,2C93-160.9,97.6-165.6,97.6-165.6z"/>
	<path d="M32.8-209.6c0,0-1.8-10.6-10.3-22.6c-5.3-7.4-12.6-13.1-21.1-16.6c2.3,8.7,6.2,16.9,11.4,24.3
		C21.7-211.6,32.8-209.6,32.8-209.6z"/>
	<path d="M22.3-241.8c0,0,2-10.7-1.4-25c-2.3-8.8-6.9-16.9-13.5-23.1c-0.9,9.1-0.3,18.3,1.9,27.2C12.8-247.6,22.3-241.8,22.3-241.8z
		"/>
	<path d="M168-185.7c0,0,3.9-9.9,14.7-20c6.8-6.1,15.1-10.3,24.1-12c-4.1,8-9.5,15.3-16.1,21.4C179.2-185.4,168-185.7,168-185.7z"/>
	<path d="M141.1-170.9c4.5-3.9,9.8-7.1,15.6-9.3c6.2-2.4,13-3,19.5-2c-5.1,4.2-10.8,7.4-16.9,9.8
		C148.4-168.2,141.1-170.9,141.1-170.9z"/>
	<path d="M114.9-165.6c4.5-1.6,9.4-2.3,14.2-2c5.3,0.2,10.4,1.9,14.8,5c-5,1.6-10.2,2.3-15.5,2C119.4-160.9,114.9-165.6,114.9-165.6
		z"/>
	<path d="M179.8-209.6c0,0,1.8-10.6,10.3-22.6c5.3-7.4,12.6-13.1,21.1-16.6c-2.3,8.7-6.2,16.9-11.4,24.3
		C190.7-211.6,179.8-209.6,179.8-209.6z"/>
	<path d="M190.3-241.8c0,0-2-10.7,1.4-25c2.3-8.8,6.9-16.9,13.5-23.1c1,9.1,0.3,18.3-1.9,27.2C199.7-247.6,190.3-241.8,190.3-241.8z
		"/>
	<circle cx="106.2" cy="-161.7" r="4.3"/>
</g>
<g>
	<path d="M18.4,49.5L39,33.4c2.6-2.1,4-4.2,4-7c0-3.4-2.3-5.9-6.4-5.9c-4,0-6.8,2.8-7,6.2H17.1c0-8.7,6.4-17.2,19.7-17.2
		c12.1,0,19.5,6.4,19.5,15.9c0,7.6-3.4,11.9-11.5,17.6l-6.2,4.4H57v11.2H18.2v-9.1H18.4z"/>
	<path d="M60.6,34.7c0-13.8,10.2-25,25.5-25s25.5,11.2,25.5,25s-10.2,25-25.5,25C70.6,59.7,60.6,48.5,60.6,34.7z M98.8,34.7
		c0-7.9-5.5-13.1-12.7-13.1s-12.7,5.1-12.7,13.1c0,7.9,5.5,13.1,12.7,13.1C93.3,47.8,98.8,42.5,98.8,34.7z"/>
	<path d="M116.2,49.5l20.6-16.1c2.6-2.1,4-4.2,4-7c0-3.4-2.3-5.9-6.4-5.9c-4,0-6.8,2.8-7,6.2h-12.5c0-8.7,6.4-17.2,19.7-17.2
		c12.1,0,19.5,6.4,19.5,15.9c0,7.6-3.4,11.9-11.5,17.6l-6.2,4.4h18.5v11.2H116v-9.1H116.2z"/>
	<path d="M116.2,49.5l20.6-16.1c2.6-2.1,4-4.2,4-7c0-3.4-2.3-5.9-6.4-5.9c-4,0-6.8,2.8-7,6.2h-12.5c0-8.7,6.4-17.2,19.7-17.2
		c12.1,0,19.5,6.4,19.5,15.9c0,7.6-3.4,11.9-11.5,17.6l-6.2,4.4h18.5v11.2H116v-9.1H116.2z"/>
	<path d="M159.7,44.1h10.9c0.2,4,3,6.4,7,6.4c3.8,0,6.7-2.2,6.7-5.9c0-4-2.9-5.9-7.2-5.9h-2.6V30h2.7c3.7,0,6.2-2.2,6.2-5.3
		c0-3.2-2.4-5.1-6.1-5.1c-3.4,0-5.9,2.2-6.2,5.1H161c0-8.1,6.4-15.2,16.4-15.2c10.2,0,16.8,5.6,16.8,13.9c0,5-2.7,8.5-6.1,10.4
		c4.3,1.6,7.3,5.6,7.3,11.3c0,9.3-7.3,15.7-17.9,15.7C165.8,60.7,159.7,53,159.7,44.1z"/>
</g>
</svg>
